<svg version="1" xmlns="http://www.w3.org/2000/svg" width="682.667" height="682.667" viewBox="0 0 512.000000 512.000000"><path d="M131.6 109.3L116 130.8v155.9l-15.2 3.3c-32 6.9-73.1 19.6-91.8 28.4-6.4 3-6 3 17-1.7C141.9 292.8 274.8 288 403.4 303c29.2 3.4 78.2 11.8 102.1 17.5 5.8 1.4 1.2-1.3-8.5-5-28.6-11-57.6-19.7-87.2-26.1l-12.8-2.7v-89.5l-10.2-15c-5.7-8.2-11.4-16.3-12.8-18l-2.5-3.1-12.2 18-12.3 18V213h-9v-15.6l-12-17.7c-6.7-9.7-12.5-17.7-12.9-17.7-.5 0-6.3 7.9-13 17.5L288 197v16h-9v-81.2l-15.7-21.9c-8.7-12-16-21.8-16.3-21.8-.3 0-7.4 9.5-15.7 21.2L216 130.4v28.9c0 15.9-.4 28.7-.8 28.5-.5-.2-8.8-5.2-18.5-11.1L179 165.8v-34.4l-15.1-21c-8.3-11.5-15.5-21.3-15.9-21.7-.4-.5-7.8 8.8-16.4 20.6zm27 8.2l10.9 15 .5 19 .5 19 4.5 2.8c2.5 1.6 14.4 8.8 26.5 16.2l22 13.4.3-34.6.2-34.5 11.1-15.1c6-8.4 11.4-15.2 12-15.2.6 0 5.9 6.7 11.9 15l11 15V221h27v-22.1l7.8-11.4c4.2-6.3 7.9-11.4 8.2-11.4.3 0 4 5.1 8.3 11.4l7.7 11.4V221h26v-20.5l8.2-12.2c4.6-6.8 8.5-12.3 8.8-12.3.3.1 4 5.2 8.3 11.4l7.7 11.4v43.1c0 23.7-.1 43.1-.2 43.1-.2 0-3-.5-6.3-1-42.3-7.1-78.3-10-125-10s-82.7 2.9-125 10c-3.3.5-6.3 1-6.7 1-.5 0-.8-33.9-.8-75.4v-75.4l11.7-16.1c6.4-8.9 11.7-16 11.8-15.9.1.2 5.1 7 11.1 15.3zM184.2 328.9c-.8.4-1.2 1.9-1 3.2.2 1.8.9 2.4 2.8 2.4s2.6-.6 2.8-2.4c.3-2-1.1-4.1-2.8-4.1-.3 0-1.1.4-1.8.9zM193.2 328.9c-.8.4-1.2 1.9-1 3.2.2 1.8.9 2.4 2.8 2.4 2.8 0 3.9-2.7 2-5-1.4-1.7-2-1.8-3.8-.6zM328 345.5v17.6l3.3-.3 3.2-.3.3-9.3c.2-7.3.6-9.4 1.8-9.9 2.6-1 3.4 1.7 3.4 10.9v8.8h7v-9.5c0-6.5-.5-10.5-1.5-12.4-1.8-3.5-5.9-4.7-9-2.7-2.2 1.5-2.2 1.5-2.1-4.2l.1-5.7-3.2-.3-3.3-.3v17.6zM474 345.5V363h5.8l.4-9c.3-9.1 1.4-11.8 4.2-10.7 1.3.5 1.6 2.4 1.6 10.2v9.5h7v-9.5c0-6.5-.5-10.5-1.5-12.4-1.8-3.6-5.9-4.7-9.1-2.6L480 340v-12h-6v17.5zM20.8 347.5c-.3 18.6-.8 20.2-5.1 18.9-1.6-.5-1.8-.1-1.5 2.8.3 2.9.7 3.3 3.6 3.6 2.5.3 3.9-.3 6.1-2.6 3.7-3.6 4.3-7.6 3.9-25.7l-.3-14-3.2-.3-3.2-.3-.3 17.6zM146 346.5V363h7l.1-10.8c.1-5.9.3-9.8.6-8.7 1 5 3.5 16.2 4 17.7.3 1.3 1.5 1.8 4.1 1.8h3.8l2.4-11.3 2.5-11.2.3 11.2.3 11.3h5.9v-33h-9.8l-1.8 7.7c-.9 4.3-2.1 9.6-2.7 11.8l-1 4-1.3-5.5c-.7-3-1.8-8.3-2.5-11.8l-1.1-6.2H146v16.5zM246.6 335.4c-.8 2-2 3.6-2.5 3.6-.6 0-1.1.9-1.1 2s.5 2 1 2c.6 0 1 3.2 1 7.6 0 4.1.5 8.4 1 9.4 1.5 2.9 4.7 4.2 8.1 3.5 2.2-.5 2.9-1.2 2.9-3.1 0-1.9-.5-2.4-2.5-2.4-2.4 0-2.5-.2-2.5-7.5s.1-7.5 2.5-7.5c2 0 2.5-.5 2.5-2.5s-.5-2.5-2.4-2.5-2.5-.6-2.8-2.7c-.5-4.3-3.4-4.2-5.2.1zM62.3 338.5c-1.4 1-2.4 1.2-2.8.5-.3-.5-1.7-1-3.1-1H54v25h7v-8.8c0-9.3.8-11.9 3.4-10.9 1.3.5 1.6 2.4 1.6 10.2v9.5h7v-10.5c0-9.9-.2-10.7-2.5-13-2.8-2.9-5.1-3.1-8.2-1zM80.5 338.2c-1.1.6-2.5 1.9-3.2 2.7-1.7 2.2-1.6 8.3.1 10.7 1 1.3 1.1 2.3.4 3.1-.6.7-.8 2.5-.5 4 .3 1.6-.1 3.2-.9 4-.8.8-1.4 3-1.4 4.8 0 4.3 2.9 6.5 8.8 6.5 7.4 0 11.1-3.1 11.2-9.1 0-4.1-2.4-6.9-6.1-6.9-3.7 0-6.9-1.1-6.3-2.1.3-.5 1.6-.9 2.8-.9 1.3 0 3.5-.9 5-2.1 2.1-1.7 2.6-2.9 2.6-6.5 0-2.4.5-4.4 1-4.4.6 0 1-.9 1-2 0-1.5-.7-2-2.7-2-1.6 0-4.4-.3-6.3-.5-1.9-.3-4.4 0-5.5.7zm5.8 5.8c.7 2.8-.3 6-1.9 6-.9 0-1.4-1.2-1.4-3.3 0-4.8 2.3-6.6 3.3-2.7zm2.7 20.6c1.2 1.2-2 3.9-4.6 3.9-3.2 0-4.7-3.1-2.2-4.6 1.2-.9 5.7-.3 6.8.7zM99.8 339.9c-3.2 2.8-3.3 3.2-3.3 10.4 0 6.6.3 7.9 2.4 10.1 4.6 4.8 14.3 4.4 14.9-.7.3-2.7.2-2.7-3.7-2.1-4.2.7-7.1-.6-7.1-3.2 0-.9 1.8-1.4 5.8-1.6l5.7-.3-.2-5c-.2-4.1-.8-5.5-3.3-7.8-3.9-3.5-7.2-3.4-11.2.2zm7.2 3.5c0 .2.3 1.1.6 2 .5 1.2 0 1.6-2 1.6-2.4 0-3.5-1.8-1.9-3.3.7-.8 3.3-1 3.3-.3zM121 338.1c-3.2 1.3-4 2.6-4 7.1 0 3.1.6 4.2 4 6.9 5.5 4.5 5.3 6.4-.5 5.6-3.8-.6-4.5-.4-4.5 1.1 0 3.5 1.7 4.6 7 4.6 4.3 0 5.5-.4 7.1-2.5 3.2-4.2 2.5-7.6-2.7-12.4-4.8-4.3-4.7-6.3 0-5.1 1.8.4 2.6 0 3.4-1.8 1-2.2.8-2.5-2-3.5-3.7-1.3-4.5-1.3-7.8 0zM211.8 338.4c-1.6.8-2.8 1.1-2.8.5 0-.5-1.3-.9-3-.9h-3v25h7v-8.1c0-8.3 1-11.9 3.4-11.9 2.1 0 2.6 2.3 2.6 11.6v8.4h7v-8.9c0-10.4-1.3-14.9-4.7-16.2-3.1-1.2-3.3-1.2-6.5.5zM231 337.7c-5.9 2.3-6.8 8.8-1.9 13.4 1.7 1.6 3.5 2.9 4 2.9s.9 1 .9 2.1c0 2-.4 2.1-4 1.5-3.9-.6-4-.6-4 2.3 0 2.6.4 3 3.8 3.6 7 1.1 11.2-2 11.2-8.4 0-2.3-.9-3.8-4-6.2-4.8-3.9-5.3-6.4-1.2-5.6 2.1.4 3.1.1 4.1-1.5.8-1.2.9-2.4.3-3-1.1-1.1-7.2-1.9-9.2-1.1zM263.4 338.1c-3.5 1.8-5.4 6.2-5.4 12.7 0 5 .4 6.6 2.6 9.1 4.5 5.4 14.4 5.1 14.4-.4 0-2.4-.2-2.5-3.5-1.9-3.7.7-6.5-.7-6.5-3.2 0-1 1.5-1.4 5.4-1.4 3 0 5.8-.5 6.1-1 1.2-1.9-.6-9-2.8-11.6-2.5-2.8-7.2-3.8-10.3-2.3zm5.6 5.3c0 .2.3 1.1.6 2 .5 1.2 0 1.6-2 1.6-2.4 0-3.5-1.8-1.9-3.3.7-.8 3.3-1 3.3-.3zM287.3 338.5c-1.3.9-2.3 1.1-2.3.6 0-.6-1.3-1.1-3-1.1h-3v25h7v-8.3c0-8.6.8-10.7 4.2-10.7 1.3 0 1.8-.8 1.8-2.5 0-1.4 0-2.8.1-3.3.1-1.4-2.6-1.2-4.8.3zM297.2 338c-2.7 1.1-4.4 5.2-3.6 8.6.3 1.3 2.4 3.9 4.7 5.8 4.9 4.1 4.3 6.1-1.5 5.2-3.8-.6-3.9-.6-3.6 2.1.2 2.3 1 3 3.9 3.7 4.4 1.1 8.7-.7 10.8-4.5 2-3.5.1-8.1-4.5-11-4.4-2.7-4.6-5.3-.3-4.7 2.2.4 3.3 0 4-1.5.7-1.2.7-2.3.2-2.8-1.5-1.5-7.5-2-10.1-.9zM315.4 338.1c-3 1.5-5.4 7.2-5.4 12.7 0 8.4 5.5 14.1 12.2 12.7 2.3-.6 2.8-1.2 2.8-3.7 0-2.8-.2-2.9-2.9-2.3-3.5.8-5.1-1.4-5.1-7 0-5.3 1.6-7.8 4.6-7.1 1.9.5 2.5.2 3-1.9.4-1.4.4-2.8.1-3.1-1.1-1.1-7.3-1.3-9.3-.3zM386.3 338.1c-3.6 1.1-3.7 1.2-2.3 3.9.8 1.5 1.8 1.7 5 1.3 3.6-.5 4-.3 4 1.6 0 1.4-.6 2.1-1.9 2.1-4 0-7.9 2.2-9.1 5.1-1.7 3.9-.2 8.9 3.1 10.8 2.2 1.2 2.9 1.2 5.7-.2 1.8-.8 3.4-1.1 3.8-.6.3.5 1.6.9 3 .9 2.4 0 2.4-.1 2.4-9.5 0-10.4-1-13.7-4.7-15.4-2.8-1.3-4.6-1.3-9 0zm6.5 16.6c-.3 3.1-3.4 4.4-4.4 1.9-.7-1.9 1.2-4.6 3.3-4.6 1 0 1.3.9 1.1 2.7zM411.3 338.5c-1.3.9-2.3 1.1-2.3.6 0-.6-1.3-1.1-3-1.1h-3v25h7v-8.3c0-8.6.8-10.7 4.2-10.7 1.3 0 1.8-.8 1.8-2.5 0-1.4 0-2.8.1-3.3.1-1.4-2.6-1.2-4.8.3zM439.8 338.1c-2.9 1.1-3.2 1.7-2.2 4.3.5 1.3 1.4 1.5 4.1 1 2.5-.5 3.8-.3 4.4.7 1.4 2.3 1.1 2.6-2.8 3.2-6.2 1-8.3 3.1-8.3 8.3 0 7.2 4.7 10.4 10 6.7 1.7-1.2 2.5-1.3 2.8-.5.2.7 1.5 1.2 2.8 1.2 2.4 0 2.4-.1 2.4-10.4 0-8.4-.3-10.8-1.7-12.5-2.1-2.5-7.6-3.5-11.5-2zm7.2 15c0 2-2.1 4.9-3.5 4.9-1.5 0-2.1-4-.8-5.3 1-1.1 4.3-.8 4.3.4zM461.3 338c-5.2 2.2-7.3 15.3-3.4 21.7 3.4 5.5 13.1 5.4 13.1-.2 0-2.4-.2-2.5-3.4-1.9-3.4.6-3.5.5-4.5-3.3-.7-2.7-.7-5 0-7.7 1-3.5 1.3-3.8 3.9-3.3 2.3.5 2.9.2 3.4-1.6.3-1.2.2-2.5-.2-2.9-1.3-1.3-6.6-1.8-8.9-.8zM32 348.6c0 5.8.4 11.4 1 12.4 1.4 2.6 5.6 3.3 9.1 1.6 1.6-.8 2.9-1 2.9-.5s1.4.9 3 .9h3v-25h-7v7.4c0 8.2-1.2 12.6-3.4 12.6-2.1 0-2.6-2.3-2.6-11.6V338h-6v10.6zM181 348.5c0 9.9.2 10.7 2.5 13 2.8 2.9 5.1 3.1 8.3.9 1.2-.8 2.2-1 2.2-.5 0 .6 1.4 1.1 3 1.1h3v-25h-7v8.9c0 6.5-.4 9.2-1.5 10.1-2.7 2.2-3.5 0-3.5-9.6V338h-7v10.5zM349.6 345.2c.8 4 1.9 9.7 2.5 12.5l1 5.3h8.7l1.3-8.8 1.2-8.7 1.3 6c.7 3.3 1.3 7.2 1.4 8.7 0 2.6.3 2.8 4.4 2.8h4.4l1.2-4.8c.6-2.6 1.5-7 2-9.7.5-2.8 1.1-6.3 1.5-7.8.7-2.7.6-2.8-2.6-2.5-3.4.3-3.4.3-5 8.3-.9 4.4-1.7 6.8-1.8 5.4-.1-1.4-.6-5.1-1.2-8.2l-1.2-5.7h-8.6l-.6 4.7c-.4 2.7-1 6.1-1.4 7.8-.7 2.8-.8 2.7-1.5-2-1.5-10.5-1.5-10.5-5.1-10.5h-3.3l1.4 7.2zM418 340.4c0 2.1.5 2.5 3.5 2.8l3.5.3-3.5 7.3c-1.9 4.1-3.5 8.5-3.5 9.8 0 2.3.2 2.4 7.5 2.4s7.5-.1 7.5-2.5c0-2.2-.4-2.5-3.5-2.5-1.9 0-3.5-.4-3.5-.8 0-.5 1.6-4.1 3.5-8.1 5.2-10.7 5.1-11.1-4-11.1-7.3 0-7.5.1-7.5 2.4zM67 401v16h2.5c1.4 0 2.5-.5 2.5-1 0-.6 1.1-.3 2.5.6 5.1 3.3 10.5-2.5 10.5-11.1 0-8.4-5.8-14.8-10-11-2 1.8-2 1.8-2-3.8 0-5.7 0-5.7-3-5.7h-3v16zm11-.1c2.1 4 .5 11.1-2.5 11.1-1.7 0-2.9-5.2-2.1-9.6.8-3.8 2.9-4.5 4.6-1.5zM121.4 386.4c-1 2.6.4 4.6 3.1 4.6 2.3 0 2.6-.4 2.3-2.8-.3-3.1-4.4-4.5-5.4-1.8zM178 386.5c-1.8 2.1-.5 4.7 2.2 4.3 2.6-.3 3.7-3.6 1.6-4.9-1.8-1.2-2.4-1.1-3.8.6zM186 386.4c-1.8 2.2-.5 4.8 2.2 4.4 1.7-.2 2.3-1 2.3-2.8 0-2.9-2.6-3.8-4.5-1.6zM314 401v16h3c3 0 3-.1 3-5.4 0-7.2 1-11.7 2.7-12.3 2.4-.9 3.3 1.7 3.3 9.9v7.8h6v-8.4c0-9.8-1-13.2-4.4-14.8-2-.9-3-.8-5.1.6L320 396v-5.5c0-5.4 0-5.5-3-5.5h-3v16zM452 401v16h5.9l.3-8.8c.3-7.9.5-8.7 2.3-8.7 1.8 0 2 .8 2.3 8.7l.3 8.8h5.9v-9.5c0-8.8-.2-9.8-2.5-12-2.8-2.9-4.2-3.1-7.1-1.1-2 1.4-2 1.3-1.6-4l.4-5.4H452v16zM48.1 390.7C45.2 401.8 42 415.2 42 416c0 .6 1.3 1 3 1 2.5 0 3-.4 3.6-3.5.6-3.3.9-3.5 4.4-3.5 3.9 0 5 1.1 5 5.1 0 1.4.7 1.9 3 1.9 3.8 0 3.8-.2-.4-16.5l-3.3-13-4.1-.3c-4-.3-4.1-.2-5.1 3.5zm6.8 11c.1 1.7-.5 2.3-2 2.3-1.9 0-2.1-.4-1.4-3.7.4-2.1 1-4.2 1.3-4.8.7-1.1 1.9 2.7 2.1 6.2zM143 402v15h6l.1-9.3.1-9.2 2.2 9 2.1 9h3.5c3.7 0 3.4.6 6.8-14.5.9-4.1 1-3.7 1.1 5.2l.1 9.8h6v-30h-4.5c-5 0-4.9-.1-7.6 13.7-.6 3.5-1.5 6.3-1.9 6.3-.3 0-1.4-3.7-2.4-8.3-2.6-12.4-2.2-11.7-7.2-11.7H143v15zM90 390.4c0 .7-1 2.6-2.2 4.1-2 2.6-2 2.9-.5 4 1.3 1 1.7 2.9 1.7 8.8 0 7.1.2 7.8 2.5 9.3 3.5 2.3 7.5 1.2 7.5-2.1 0-1.8-.5-2.5-2-2.5-1.8 0-2-.7-2-6.5s.2-6.5 2-6.5c1.5 0 2-.7 2-2.5s-.5-2.5-2-2.5-2-.7-2-2.5c0-2-.5-2.5-2.5-2.5-1.4 0-2.5.6-2.5 1.4zM237 390.8c0 1.1-.9 2.7-2 3.7-2.1 1.9-2.7 4.5-1 4.5.6 0 1 2.8 1 6.2 0 9.4 3 13.8 8.3 12.4 3.6-.9 3.9-5.3.5-5.8-2.1-.3-2.3-.9-2.6-6.6-.3-6.1-.2-6.2 2.3-6.2 2 0 2.5-.5 2.5-2.5s-.5-2.5-2.5-2.5-2.5-.5-2.5-2.5c0-1.8-.5-2.5-2-2.5-1.3 0-2 .7-2 1.8zM105.9 394.5c-4.4 2.4-6.2 10.5-3.8 17.2 2.3 6.8 14 8.4 14.7 2 .3-2.6.2-2.6-2.9-1.5-2.9 1-3.4.9-5.1-1.2-2.8-3.4-2.3-4 3.8-4h5.7l-.6-4.6c-.8-7.3-6.3-11-11.8-7.9zm6.1 7.1c0 .8-1 1.4-2.5 1.4-2.8 0-2.9-.3-1.4-3.1.8-1.6 1.3-1.8 2.5-.8.8.6 1.4 1.8 1.4 2.5zM206 393.7c-.8.3-2.1 1.2-2.7 2.1-1.2 1.4-1.3 1.4-1.3-.1 0-1.1-.8-1.7-2.5-1.7H197v23h6v-6.8c0-8.4.8-11.2 3-11.2 2.1 0 3 3.7 3 12.1 0 5.9 0 5.9 3 5.9h3v-7.9c0-12.7-2.9-17.6-9-15.4zM221.5 394.2c-2.8 1.6-3.5 2.8-3.5 6.5 0 2.5.8 3.8 3.5 5.9 5.4 4.1 4.1 8.4-1.6 5.4-1.7-1-1.9-.7-1.9 1.9 0 2.6.4 3.1 3.4 3.6 3.4.7 7.3-.6 8.8-2.9.4-.6.8-2.8.8-4.8 0-3.2-.5-4.1-3.5-6-4.1-2.7-4.3-5.5-.4-5 2.7.3 4.8-2.3 3.2-3.9-1.5-1.5-6.8-1.9-8.8-.7zM253.4 394c-3.8 1.5-5.4 5-5.4 11.6 0 4.7.5 6.8 2 8.7 3.9 5 14 4.4 14-.8 0-2.9 0-2.8-3.5-1.5-3.3 1.2-6.5-.3-6.5-3 0-1.7.7-2 5-2h5v-4.3c-.1-4.5-1.2-6.7-4.7-8.5-2.5-1.4-3-1.4-5.9-.2zm4.7 6.8c.7 1.9.5 2.2-1.6 2.2-1.8 0-2.5-.6-2.5-1.8 0-3.8 2.8-4.1 4.1-.4zM275.1 394.9c-1.6 1.6-2.1 1.8-2.1.6 0-.9-.9-1.5-2.5-1.5H268v23h6v-7.4c0-7.7 1.3-10.6 4.6-10.6 1.1 0 1.4-.8 1.2-2.7-.4-3.4-2.2-3.9-4.7-1.4zM285.5 394.1c-5.7 3.2-5.8 7-.4 12.1 4.1 3.9 4.8 7.6 1.1 6.5-.9-.2-2.3-.6-3.1-.8-2.2-.6-2.6 3.3-.5 4.8 4.7 3.5 12.4-.4 12.4-6.2 0-2.6-.8-4-3.6-6.4-4.1-3.3-4.2-6.2-.1-5.4 2.5.5 4.6-2.2 3-3.8-1.5-1.5-6.8-1.9-8.8-.8zM301.4 395.4c-2.4 2-2.8 3.2-3.1 8.7-.3 4 .1 7.3.9 8.9 1.8 3.4 5.8 5.5 9.1 4.6 2.1-.5 2.7-1.2 2.7-3.5 0-2.5-.3-2.8-2.6-2.3-3.2.6-4.4-1-4.4-6 0-5.3.8-6.8 4-6.8 3.9 0 4.9-3.7 1.4-5.1-3.7-1.4-5-1.1-8 1.5zM370.2 394.5c-2.9 1.3-3.1 1.7-2 3.4.9 1.5 1.6 1.7 3.6 1 2.7-1 5.2.3 5.2 2.7 0 .9-1.2 1.4-3.5 1.4-2.2 0-4.3.8-5.5 2-4 4-1.4 13 3.7 13 .9 0 2.5-.8 3.6-1.8 1.5-1.2 2.1-1.4 2.4-.5.3.7 1.6 1.3 2.9 1.3 2.3 0 2.4-.2 2.4-8.5 0-9.4-1.1-12.8-4.7-14.4-3-1.4-4-1.3-8.1.4zm6.8 13.8c0 2.2-2.6 5.1-3.8 4.3-1.3-.8-1.6-3.9-.5-4.9 1.1-1.2 4.3-.7 4.3.6zM394 394.5c-.9 1.1-1.6 1.3-2.4.5-.5-.5-2-1-3.3-1-2.3 0-2.3.2-2.3 11.5V417h6v-6.8c0-7 1.7-11.2 4.6-11.2.8 0 1.4-.9 1.4-2s0-2.3.1-2.8c.1-1.4-2.8-1.3-4.1.3zM419.8 394.1c-2.9 1.1-3.4 2.4-1.9 4.8.7 1 1.3 1.1 3 .1 1.7-.9 2.6-.9 3.7.1 2.6 2.1 1.6 3.9-2.1 3.9-2.2 0-4.3.8-5.5 2-4 4-1.4 13 3.8 13 1 0 2.8-.7 4-1.6 1.2-.8 2.2-1 2.2-.5 0 .6 1.2 1.1 2.6 1.1h2.6l-.4-10c-.3-10.9-1.1-12.6-6.3-13.4-1.7-.3-4.2 0-5.7.5zm6.2 14.2c0 2.2-2.6 5.1-3.8 4.3-1.3-.8-1.6-3.9-.5-4.9 1.1-1.2 4.3-.7 4.3.6zM440.3 394c-7.6 3.1-6.7 21.6 1.2 23.6 3.9 1 7.5-1 7.5-4.1 0-2.2-.3-2.4-3.1-1.8-3.6.7-4.9-.7-4.9-5.2 0-5.6 1-7.5 4-7.5 2.8 0 4.8-2.6 3.3-4.1-1.4-1.3-5.7-1.8-8-.9zM121 405.5V417h6v-23h-6v11.5zM175 402c0 4.7.6 9.5 1.4 11.5 1.8 4.2 5.5 5.5 9.1 3.1 1.4-.9 2.5-1.2 2.5-.6 0 .5 1.1 1 2.5 1h2.5v-23h-6v6.7c0 8.6-.8 11.3-3 11.3s-3-2.7-3-11.3V394h-6v8zM334.1 394.7c0 .5 1 5.5 2.2 11.3l2.2 10.5h8l.9-6.3c.5-3.4 1.2-6.2 1.6-6.2.4 0 1.1 2.1 1.4 4.7 1.2 8 1.4 8.3 5.5 8.3h3.7l1.8-9.3c1-5 2-10.2 2.3-11.5.5-1.9.1-2.2-2.5-2.2-2.8 0-3.2.4-3.7 3.7-2.1 12.7-1.9 12.4-3.3 4l-1.3-7.7H349c-3.9 0-3.9 0-4.5 4.7-.4 2.7-1.1 6.4-1.5 8.3l-.8 3.5-.1-3.2c-.1-1.8-.6-5.5-1.2-8.3-1-4.6-1.3-5-4-5-1.6 0-2.9.3-2.8.7zM400 396.5c0 2.1.5 2.5 3 2.5 1.7 0 3 .2 3 .4s-1.3 3.3-3 6.8c-1.6 3.4-3 7.3-3 8.6 0 2.2.3 2.3 6.8 2 5.9-.3 6.7-.5 6.7-2.3 0-1.5-.8-2.1-3.2-2.3-1.8-.2-3.3-.5-3.3-.8 0-.2 1.4-3.1 3-6.4 1.7-3.3 3-7.1 3-8.5 0-2.4-.2-2.5-6.5-2.5s-6.5.1-6.5 2.5z"/></svg>